<svg width="36" height="30" viewBox="0 0 36 30" fill="none" xmlns="http://www.w3.org/2000/svg">
<path fill-rule="evenodd" clip-rule="evenodd" d="M8.73226 6.34681C3.9358 9.83518 0.00631698 12.7044 6.86344e-05 12.7228C-0.00614138 12.7412 0.409853 13.3351 0.924555 14.0425L1.86039 15.3286L9.66614 9.6549L17.4719 3.98118L17.5967 4.06935C17.6653 4.11784 21.1812 6.66042 25.4097 9.71957C29.6383 12.7787 33.1142 15.2916 33.134 15.3039C33.166 15.3236 34.9604 12.8884 35.011 12.7564C35.025 12.7201 34.2257 12.1203 32.5002 10.8722L29.969 9.04118V4.52061V0H27.8034H25.6378L25.6279 2.94703L25.6181 5.89406L21.5466 2.94703C19.3073 1.32614 17.4701 0.000996929 17.4641 0.00218526C17.4581 0.0033736 13.5287 2.85848 8.73226 6.34681ZM11.2239 10.5731L4.99476 15.0857L4.98506 22.1479L4.9754 29.21H9.47965H13.9839V24.5333V19.8567H17.4723H20.9606V24.5333V29.21H25.4648H29.969V22.157V15.1039L29.6144 14.8429C28.7947 14.2396 17.4788 6.05682 17.4666 6.05862C17.4592 6.05969 14.65 8.09121 11.2239 10.5731Z" fill="white"/>
</svg>
